cat-alphabet.sfdir
StartChar: space
Encoding: 32 32 26
Width: 799
VWidth: 0
Flags: HW
HStem: 61 4<397 403>
VStem: 397 6<61 66>
LayerCount: 2
Fore
SplineSet
397 66 m 1
 403 66 l 1
 403 61 l 1
 397 61 l 1
 397 66 l 1
EndSplineSet
Validated: 1
EndChar
StartChar: A
Encoding: 65 65 1
Width: 819
VWidth: 0
Flags: HW
LayerCount: 2
Fore
SplineSet
509 269 m 0
 545 329 529 404 474 436 c 0
 419 468 346 445 310 385 c 0
 274 325 291 250 346 218 c 0
 401 186 473 209 509 269 c 0
534 255 m 0
 490 179 399 151 330 191 c 0
 261 231 241 323 285 399 c 0
 329 475 420 503 489 463 c 0
 558 423 578 331 534 255 c 0
EndSplineSet
Validated: 33
EndChar
StartChar: B
Encoding: 66 66 2
Width: 800
VWidth: 0
Flags: HW
LayerCount: 2
Fore
SplineSet
296.624023438 236.751953125 m 1
 509.235351562 236.751953125 l 1
 398.110351562 415.912109375 l 1
 296.624023438 236.751953125 l 1
396.03125 468.073242188 m 1
 562.71875 211.048828125 l 1
 237.28125 211.048828125 l 1
 396.03125 468.073242188 l 1
EndSplineSet
EndChar
StartChar: C
Encoding: 67 67 3
Width: 819
VWidth: 0
Flags: HW
HStem: 216 27<300 516> 453 27<305 521>
VStem: 261 40<242 453> 516 37<242 453>
LayerCount: 2
Fore
SplineSet
305 453 m 1
 300 242 l 1
 516 242 l 1
 521 453 l 1
 305 453 l 1
266 479 m 1
 558 479 l 1
 553 216 l 1
 261 216 l 1
 266 479 l 1
EndSplineSet
Validated: 1
EndChar
StartChar: D
Encoding: 68 68 4
Width: 800
VWidth: 0
Flags: HW
LayerCount: 2
Fore
SplineSet
106.123046875 442.370117188 m 1
 100.83203125 236.751953125 l 1
 695.765625 236.751953125 l 1
 701.057617188 442.370117188 l 1
 106.123046875 442.370117188 l 1
67.947265625 468.073242188 m 1
 737.34375 468.073242188 l 1
 732.051757812 211.048828125 l 1
 62.65625 211.048828125 l 1
 67.947265625 468.073242188 l 1
EndSplineSet
EndChar
StartChar: E
Encoding: 69 69 5
Width: 819
VWidth: 0
Flags: HW
VStem: 224 35<430 512> 342 27<492 588>
LayerCount: 2
Fore
SplineSet
407 123 m 1
 416 78 422 24 451 23 c 0
 501 20 540 87 554 136 c 0
 571 197 562 281 515 323 c 0
 486 350 436 340 396 332 c 0
 224 282 149 173 198 65 c 0
 207 38 234 16 262 13 c 0
 312 8 378 96 407 123 c 1
398 69 m 1
 361 36 302 -24 239 -18 c 0
 204 -14 172 18 160 51 c 0
 134 123 146 221 202 271 c 0
 288 345 462 428 549 358 c 0
 609 306 620 201 598 124 c 0
 581 63 533 -19 470 -15 c 0
 433 -12 410 13 398 69 c 1
655 561 m 0
 632 562 614 537 602 518 c 0
 593 503 583 482 591 465 c 0
 603 429 646 435 666 461 c 0
 683 480 688 511 680 535 c 0
 676 547 667 560 655 561 c 0
662 593 m 0
 681 588 699 568 704 549 c 0
 716 509 709 457 681 426 c 0
 663 407 630 397 604 403 c 0
 584 408 565 429 559 449 c 0
 553 472 561 499 573 521 c 0
 586 545 608 566 631 581 c 0
 640 587 652 596 662 593 c 0
398 604 m 0
 376 595 372 564 369 541 c 0
 368 523 369 502 383 490 c 0
 409 463 446 487 452 518 c 0
 458 542 450 573 433 591 c 0
 425 600 410 609 398 604 c 0
392 635 m 0
 411 639 434 629 448 614 c 0
 476 583 493 534 481 494 c 0
 473 468 448 445 422 440 c 0
 402 436 375 447 361 462 c 0
 344 480 341 508 342 532 c 0
 343 560 355 588 369 612 c 0
 374 621 382 632 392 635 c 0
147 539 m 0
 129 525 133 493 138 471 c 0
 142 453 149 431 166 425 c 0
 198 407 227 442 224 474 c 0
 223 500 205 523 183 536 c 0
 173 542 156 547 147 539 c 0
131 566 m 0
 149 576 173 573 191 563 c 0
 227 543 258 500 259 458 c 0
 260 431 242 402 219 389 c 0
 200 379 174 382 155 392 c 0
 133 404 121 430 115 453 c 0
 107 480 110 509 116 536 c 0
 119 546 122 561 131 566 c 0
EndSplineSet
Validated: 33
EndChar
StartChar: F
Encoding: 70 70 6
Width: 800
VWidth: 0
Flags: HW
LayerCount: 2
Fore
SplineSet
409.291015625 119.6171875 m 1
 418.3828125 76.0830078125 423.733398438 24.8916015625 452.303710938 23.1201171875 c 0
 501.658203125 20.060546875 539.583984375 84.6455078125 552.716796875 132.319335938 c 0
 569.23046875 192.266601562 561.369140625 273.966796875 514.581054688 314.920898438 c 0
 485.216796875 340.624023438 436.215820312 330.448242188 397.8203125 323.471679688 c 0
 229.936523438 274.33984375 157.549804688 168.59375 205.213867188 63.921875 c 0
 214.309570312 37.9892578125 240.814453125 15.9892578125 268.142578125 13.091796875 c 0
 317.435546875 7.8642578125 380.697265625 93.818359375 409.291015625 119.6171875 c 1
400.900390625 68.0087890625 m 1
 365.159179688 35.759765625 306.881835938 -24.5078125 245.264648438 -17.9736328125 c 0
 211.104492188 -14.3515625 179.046875 17.4375 167.676757812 49.8525390625 c 0
 142.948242188 120.348632812 154.813476562 217.091796875 209.87109375 265.298828125 c 0
 293.3046875 338.3515625 463.2421875 418.340820312 547.952148438 349.6640625 c 0
 606.4375 298.470703125 616.264648438 196.345703125 595.622070312 121.412109375 c 0
 579.206054688 61.8193359375 531.798828125 -18.9111328125 470.10546875 -15.0869140625 c 0
 434.392578125 -12.873046875 412.266601562 13.58984375 400.900390625 68.0087890625 c 1
686.109375 523.1015625 m 0
 664.01171875 526.241210938 643.850585938 503.3828125 630.916992188 485.192382812 c 0
 620.76171875 470.909179688 611.16015625 450.9921875 617.034179688 434.479492188 c 0
 625.383789062 399.09765625 668.879882812 402.083007812 689.993164062 425.067382812 c 0
 707.561523438 441.994140625 713.639648438 472.071289062 708.407226562 495.8984375 c 0
 705.892578125 507.350585938 697.716796875 521.452148438 686.109375 523.1015625 c 0
695.366210938 553.357421875 m 0
 713.995117188 547.454101562 728.33984375 527.106445312 732.53125 508.01953125 c 0
 741.250976562 468.306640625 731.120117188 418.178710938 701.840820312 389.967773438 c 0
 683.131835938 371.94140625 650.356445312 364.889648438 625.732421875 373.172851562 c 0
 605.813476562 379.874023438 589.510742188 400.704101562 584.896484375 421.20703125 c 0
 579.670898438 444.427734375 590.918945312 469.8984375 603.379882812 490.17578125 c 0
 617.65234375 513.400390625 640.373046875 531.6640625 664.2890625 544.744140625 c 0
 673.719726562 549.90234375 685.119140625 556.60546875 695.366210938 553.357421875 c 0
500.91796875 608.118164062 m 0
 478.615234375 607.268554688 462.8515625 581.182617188 453.3671875 560.978515625 c 0
 445.919921875 545.11328125 440.0234375 523.8046875 448.74609375 508.603515625 c 0
 463.268554688 475.276367188 505.536132812 485.966796875 522.21484375 512.346679688 c 0
 536.484375 532.133789062 537.104492188 562.8125 527.708007812 585.325195312 c 0
 523.192382812 596.145507812 512.634765625 608.564453125 500.91796875 608.118164062 c 0
504.634765625 639.540039062 m 0
 524.016601562 637.051757812 541.758789062 619.5859375 549.28515625 601.552734375 c 0
 564.944335938 564.030273438 563.91015625 512.8984375 540.12890625 479.920898438 c 0
 524.932617188 458.848632812 493.938476562 446.067382812 468.232421875 449.829101562 c 0
 447.438476562 452.872070312 427.68359375 470.462890625 419.48828125 489.814453125 c 0
 410.208007812 511.731445312 416.735351562 538.799804688 425.3828125 560.973632812 c 0
 435.287109375 586.370117188 454.387695312 608.391601562 475.58984375 625.524414062 c 0
 483.950195312 632.28125 493.971679688 640.908203125 504.634765625 639.540039062 c 0
283.461914062 587.868164062 m 0
 262.860351562 579.283203125 257.200195312 549.333984375 255.369140625 527.08984375 c 0
 253.932617188 509.623046875 255.848632812 487.596679688 269.33203125 476.3984375 c 0
 294.580078125 450.2421875 330.451171875 475.022460938 336.866210938 505.56640625 c 0
 343.326171875 529.08984375 333.192382812 558.053710938 316.525390625 575.868164062 c 0
 308.515625 584.4296875 294.284179688 592.377929688 283.461914062 587.868164062 c 0
275.969726562 618.609375 m 0
 295.000976562 623.046875 317.725585938 612.877929688 331.076171875 598.608398438 c 0
 358.854492188 568.91796875 375.744140625 520.645507812 364.977539062 481.438476562 c 0
 358.098632812 456.385742188 333.51953125 433.583984375 308.118164062 428.130859375 c 0
 287.571289062 423.720703125 262.916015625 433.303710938 248.478515625 448.575195312 c 0
 232.127929688 465.870117188 228.791015625 493.513671875 229.149414062 517.311523438 c 0
 229.559570312 544.567382812 239.766601562 571.873046875 253.649414062 595.33203125 c 0
 259.124023438 604.583984375 265.500976562 616.16796875 275.969726562 618.609375 c 0
100.295898438 481.998046875 m 0
 83.2431640625 467.599609375 86.8779296875 437.337890625 91.8408203125 415.577148438 c 0
 95.73828125 398.490234375 104.208984375 378.067382812 120.440429688 371.45703125 c 0
 152.401367188 354.1328125 179.129882812 388.577148438 176.03515625 419.633789062 c 0
 175.099609375 444.010742188 156.703125 468.569335938 135.439453125 480.528320312 c 0
 125.220703125 486.275390625 109.254882812 489.5625 100.295898438 481.998046875 c 0
83.8828125 509.048828125 m 0
 100.688476562 519.01953125 125.421875 516.176757812 142.455078125 506.59765625 c 0
 177.893554688 486.666992188 208.5546875 445.735351562 210.11328125 405.106445312 c 0
 211.109375 379.146484375 194.551757812 349.994140625 171.977539062 337.133789062 c 0
 153.717773438 326.732421875 127.3203125 328.434570312 108.94921875 338.640625 c 0
 88.1435546875 350.19921875 76.6259765625 375.548828125 69.791015625 398.34765625 c 0
 61.9619140625 424.458007812 63.458984375 453.5703125 69.6201171875 480.124023438 c 0
 72.05078125 490.595703125 74.63671875 503.563476562 83.8828125 509.048828125 c 0
EndSplineSet
EndChar
StartChar: G
Encoding: 71 71 7
Width: 819
VWidth: 0
Flags: HW
VStem: 229 55<366 518>
LayerCount: 2
Fore
SplineSet
407 123 m 1
 416 78 423 24 452 23 c 0
 502 20 540 87 554 136 c 0
 571 197 562 281 515 323 c 0
 486 350 436 340 396 332 c 0
 224 282 149 173 198 65 c 0
 207 38 234 16 262 13 c 0
 312 8 378 96 407 123 c 1
399 69 m 1
 362 36 302 -24 239 -18 c 0
 204 -14 172 18 160 51 c 0
 134 123 148 221 204 271 c 0
 290 345 462 428 549 358 c 0
 609 306 620 201 598 124 c 0
 581 63 533 -19 470 -15 c 0
 433 -12 411 13 399 69 c 1
401 748 m 1
 438 703 468 578 462 488 c 0
 459 461 458 408 431 411 c 0
 399 414 392 472 411 507 c 0
 444 567 413 662 401 748 c 1
662 710 m 1
 682 656 672 526 637 444 c 0
 627 418 610 371 584 381 c 0
 553 394 565 452 594 479 c 0
 644 526 645 624 662 710 c 1
161 680 m 1
 208 645 269 530 284 442 c 0
 289 415 301 366 274 361 c 0
 242 356 219 410 229 448 c 0
 246 515 193 599 161 680 c 1
EndSplineSet
Validated: 33
EndChar
StartChar: H
Encoding: 72 72 8
Width: 800
VWidth: 0
Flags: HW
LayerCount: 2
Fore
SplineSet
392.008789062 119.6171875 m 1
 401.100585938 76.0830078125 406.451171875 24.8916015625 435.021484375 23.1201171875 c 0
 484.375976562 20.060546875 522.301757812 84.6455078125 535.434570312 132.319335938 c 0
 551.948242188 192.266601562 544.086914062 273.966796875 497.298828125 314.920898438 c 0
 467.934570312 340.624023438 418.93359375 330.448242188 380.538085938 323.471679688 c 0
 212.654296875 274.33984375 140.267578125 168.59375 187.931640625 63.921875 c 0
 197.02734375 37.9892578125 223.532226562 15.9892578125 250.860351562 13.091796875 c 0
 300.153320312 7.8642578125 363.415039062 93.818359375 392.008789062 119.6171875 c 1
383.618164062 68.0087890625 m 1
 347.876953125 35.759765625 289.599609375 -24.5078125 227.982421875 -17.9736328125 c 0
 193.822265625 -14.3515625 161.764648438 17.4375 150.39453125 49.8525390625 c 0
 125.666015625 120.348632812 137.53125 217.091796875 192.588867188 265.298828125 c 0
 276.022460938 338.3515625 445.959960938 418.340820312 530.669921875 349.6640625 c 0
 589.155273438 298.470703125 598.982421875 196.345703125 578.33984375 121.412109375 c 0
 561.923828125 61.8193359375 514.516601562 -18.9111328125 452.823242188 -15.0869140625 c 0
 417.110351562 -12.873046875 394.984375 13.58984375 383.618164062 68.0087890625 c 1
508.515625 729.161132812 m 1
 535.614257812 679.107421875 541.161132812 551.90234375 518.005859375 467.884765625 c 0
 510.9296875 442.208984375 500.245117188 393.56640625 474.611328125 400.795898438 c 0
 443.854492188 409.470703125 446.864257812 467.388671875 472.27734375 496.63671875 c 0
 515.271484375 548.41796875 503.41015625 644.466796875 508.515625 729.161132812 c 1
697.258789062 654.025390625 m 1
 710.064453125 598.565429688 681.567382812 474.469726562 636.89453125 399.641601562 c 0
 623.2421875 376.772460938 600 332.7265625 577.213867188 346.515625 c 0
 549.874023438 363.060546875 568.184570312 418.08984375 600.462890625 439.522460938 c 0
 655.68359375 477.999023438 669.803710938 573.741210938 697.258789062 654.025390625 c 1
293.872070312 719.317382812 m 1
 332.766601562 677.760742188 370.35546875 556.109375 369.239257812 468.966796875 c 0
 368.897460938 442.3359375 370.8828125 392.573242188 344.25390625 393.073242188 c 0
 312.303710938 393.673828125 300.543945312 450.46484375 317.71875 485.197265625 c 0
 346.193359375 546.1796875 310.387695312 636.090820312 293.872070312 719.317382812 c 1
99.662109375 640.830078125 m 1
 145.973632812 607.739257812 206.766601562 495.864257812 222.8203125 410.206054688 c 0
 227.7265625 384.028320312 239.465820312 335.629882812 213.258789062 330.879882812 c 0
 181.815429688 325.181640625 159.109375 378.547851562 169.11328125 415.98046875 c 0
 185.030273438 481.374023438 132.231445312 562.481445312 99.662109375 640.830078125 c 1
EndSplineSet
EndChar
StartChar: I
Encoding: 73 73 9
Width: 566
VWidth: 0
Flags: HW
LayerCount: 2
Fore
SplineSet
423 407 m 0
 438 576 395 685 319 692 c 0
 243 699 147 470 132 301 c 0
 117 132 179 27 255 20 c 0
 331 13 408 238 423 407 c 0
459 420 m 0
 440 209 345 -35 251 -27 c 0
 157 -19 90 93 109 304 c 0
 128 515 227 744 321 736 c 0
 415 728 478 631 459 420 c 0
382 221 m 1
 385 222 l 1
 382 221 l 1
 378 220 l 1
 241 222 154 233 129 339 c 1
 134 406 l 1
 153 277 251 236 378 220 c 1
 382 221 l 1
EndSplineSet
Validated: 37
EndChar
StartChar: J
Encoding: 74 74 10
Width: 800
VWidth: 0
Flags: HW
LayerCount: 2
Fore
SplineSet
536.57421875 397.19921875 m 0
 551.65234375 561.96484375 508.376953125 669.431640625 434.787109375 676.166015625 c 0
 361.196289062 682.900390625 267.015625 458.974609375 251.9375 294.208984375 c 0
 236.859375 129.444335938 298.088867188 26.7021484375 371.6796875 19.9677734375 c 0
 445.26953125 13.2333984375 521.49609375 232.434570312 536.57421875 397.19921875 c 0
570.717773438 409.8359375 m 0
 551.870117188 203.879882812 460.130859375 -34.6865234375 368.142578125 -26.2685546875 c 0
 276.155273438 -17.8505859375 210.249023438 91.677734375 229.096679688 297.634765625 c 0
 247.944335938 503.590820312 344.408203125 727.982421875 436.396484375 719.564453125 c 0
 528.383789062 711.146484375 589.565429688 615.791992188 570.717773438 409.8359375 c 0
EndSplineSet
EndChar
StartChar: K
Encoding: 75 75 11
Width: 819
VWidth: 0
Flags: HW
HStem: 476 122<337 366 453 483>
VStem: 332 41<476 598> 448 41<475 595>
LayerCount: 2
Fore
SplineSet
332 536 m 0
 331 569 337 598 349 598 c 0
 361 598 370 571 371 538 c 0
 372 505 365 476 353 476 c 0
 341 476 333 503 332 536 c 0
401 307 m 1
 433 91 617 -1 643 174 c 0
 660 325 694 585 529 646 c 0
 451 675 275 659 233 586 c 0
 138 422 147 159 191 76 c 0
 246 -10 363 228 401 307 c 1
398 232 m 1
 351 133 233 -79 165 29 c 0
 110 133 93 491 220 641 c 0
 288 722 436 721 535 684 c 0
 741 607 697 321 680 142 c 0
 661 -53 421 25 398 232 c 1
448 535 m 0
 447 568 455 595 467 595 c 0
 479 595 488 568 489 535 c 0
 490 502 482 475 470 475 c 0
 458 475 449 502 448 535 c 0
EndSplineSet
Validated: 33
EndChar
StartChar: L
Encoding: 76 76 12
Width: 819
VWidth: 0
Flags: HW
VStem: 458 40<500 608>
LayerCount: 2
Fore
SplineSet
458 550 m 0
 453 583 456 613 468 614 c 0
 480 615 493 591 498 558 c 0
 503 525 500 495 488 494 c 0
 476 493 463 517 458 550 c 0
344 486 m 1
 381 459 430 407 545 433 c 0
 591 443 631 474 648 529 c 1
 659 492 l 1
 642 437 594 411 547 399 c 0
 493 385 434 404 385 431 c 1
 344 486 l 1
401 288 m 1
 433 72 617 -20 643 155 c 0
 660 306 694 567 529 628 c 0
 451 657 275 641 233 568 c 0
 138 404 147 141 191 58 c 0
 246 -28 363 209 401 288 c 1
398 214 m 1
 351 115 233 -96 165 12 c 0
 110 116 93 472 220 622 c 0
 288 703 436 703 535 666 c 0
 741 589 697 302 680 123 c 0
 661 -72 421 7 398 214 c 1
EndSplineSet
Validated: 37
EndChar
StartChar: M
Encoding: 77 77 13
Width: 819
VWidth: 0
Flags: HW
HStem: 419 22<182 308>
VStem: 549 18<512 564>
LayerCount: 2
Fore
SplineSet
549 538 m 0
 548 553 551 566 556 566 c 0
 561 566 566 554 567 539 c 0
 568 524 566 511 561 511 c 0
 556 511 550 523 549 538 c 0
591 548 m 1
 574 575 540 589 512 586 c 0
 466 581 421 527 399 472 c 1
 361 427 295 416 236 419 c 0
 173 422 83 472 50 439 c 0
 41 427 119 378 188 337 c 1
 267 270 371 123 495 99 c 0
 544 95 624 94 666 134 c 0
 710 174 723 245 713 303 c 0
 701 368 585 414 598 466 c 0
 606 495 599 514 723 531 c 1
 669 545 638 526 591 548 c 1
607 568 m 1
 666 540 732 556 799 538 c 1
 757 512 641 527 626 467 c 0
 609 402 740 377 754 310 c 0
 769 241 745 164 700 106 c 1
 645 60 549 64 488 68 c 0
 452 74 419 87 388 106 c 0
 291 165 225 259 133 335 c 0
 104 359 72 384 37 398 c 0
 19 412 12 451 29 466 c 0
 71 507 153 441 204 440 c 0
 269 432 336 446 383 502 c 1
 410 571 456 614 515 620 c 0
 550 624 587 601 607 568 c 1
EndSplineSet
Validated: 33
EndChar
StartChar: N
Encoding: 78 78 14
Width: 819
VWidth: 0
Flags: HW
LayerCount: 2
Fore
SplineSet
381 303 m 1
 413 87 617 -28 623 145 c 1
 574 272 653 518 736 605 c 0
 762 632 652 656 620 634 c 0
 556 592 516 498 428 497 c 0
 241 493 97 653 93 626 c 0
 69 472 138 154 170 73 c 1
 225 -13 343 224 381 303 c 1
379 229 m 1
 332 130 214 -81 146 27 c 0
 91 131 -24 803 114 663 c 0
 152 625 309 520 436 529 c 0
 531 535 579 696 662 684 c 0
 689 680 741 660 754 652 c 0
 841 600 569 457 660 138 c 1
 641 -57 402 22 379 229 c 1
EndSplineSet
Validated: 33
EndChar
StartChar: O
Encoding: 79 79 0
Width: 819
VWidth: 0
Flags: HW
VStem: 50 58<413 566>
LayerCount: 2
Fore
SplineSet
238 270 m 0
 297 207 356 114 371 41 c 1
 386 114 467 208 526 271 c 0
 586 334 666 388 694 470 c 0
 729 570 681 620 623 639 c 0
 546 663 444 601 417 509 c 1
 390 601 294 649 216 635 c 0
 157 625 109 556 108 492 c 0
 107 411 178 333 238 270 c 0
204 266 m 0
 128 345 50 403 50 494 c 0
 50 575 109 663 186 695 c 0
 270 730 385 664 420 549 c 1
 455 664 581 741 677 710 c 0
 751 687 780 572 767 495 c 0
 750 389 630 330 554 251 c 0
 480 173 391 77 371 -14 c 1
 351 77 278 188 204 266 c 0
EndSplineSet
Validated: 33
EndChar
StartChar: P
Encoding: 80 80 15
Width: 800
VWidth: 0
Flags: HW
LayerCount: 2
Fore
SplineSet
621.022460938 84.2705078125 m 1
 630.607421875 258.25390625 654.03125 409.3125 565.08203125 562.032226562 c 1
 532.50390625 486.118164062 472.422851562 350.440429688 452.255859375 277.227539062 c 1
 384.2109375 350.2890625 308.422851562 468.588867188 268.9375 576.962890625 c 1
 161.946289062 446.682617188 170.0234375 208.623046875 203.169921875 83.13671875 c 1
 621.022460938 84.2705078125 l 1
649.112304688 57.0234375 m 1
 163.413085938 57.96875 l 1
 121.979492188 214.827148438 135.506835938 478.146484375 269.24609375 640.997070312 c 1
 318.602539062 505.529296875 359.00390625 426.162109375 444.060546875 334.8359375 c 1
 469.267578125 426.3515625 524.2890625 540.43359375 565.012695312 635.327148438 c 1
 676.19921875 444.426757812 661.092773438 274.501953125 649.112304688 57.0234375 c 1
EndSplineSet
EndChar
StartChar: Q
Encoding: 81 81 16
Width: 836
VWidth: 0
Flags: HW
HStem: -27 40<373 437> 605 63G<139 177 721 750>
VStem: 87 8<58 76> 136 13<-6 17> 342 41<327 443> 502 39<321 436> 652 18<-18 70> 721 14<63 88> 776 5<134 183>
LayerCount: 2
Fore
SplineSet
342 388 m 0
 346 421 358 446 370 445 c 0
 382 444 387 416 383 383 c 0
 379 350 368 324 356 325 c 0
 344 326 338 355 342 388 c 0
502 381 m 0
 506 414 517 440 529 439 c 0
 541 438 545 409 541 376 c 0
 537 343 527 318 515 319 c 0
 503 320 498 348 502 381 c 0
594 333 m 1
 565 270 l 1
 523 234 467 204 412 207 c 0
 363 210 311 227 284 278 c 1
 288 315 l 1
 315 264 360 243 407 242 c 0
 526 239 562 298 594 333 c 1
605 216 m 0
 675 324 730 463 712 572 c 1
 681 566 651 545 632 531 c 0
 615 516 592 494 584 476 c 1
 534 505 359 495 278 486 c 1
 274 505 255 534 243 552 c 0
 229 570 205 597 177 611 c 1
 144 505 169 382 205 280 c 0
 234 196 333 53 389 22 c 0
 394 18 400 14 406 13 c 0
 412 13 417 15 422 19 c 0
 498 68 556 140 605 216 c 0
639 575 m 0
 662 593 702 618 739 626 c 1
 759 489 711 347 648 227 c 0
 596 128 515 41 420 -19 c 0
 414 -23 406 -27 398 -27 c 0
 390 -26 383 -22 378 -17 c 0
 294 57 226 155 189 261 c 0
 144 390 119 537 160 669 c 1
 195 652 227 619 245 596 c 0
 260 573 284 539 288 515 c 1
 371 527 435 528 508 522 c 0
 531 519 563 510 577 507 c 1
 587 529 619 557 639 575 c 0
58 160 m 1
 56 188 l 1
 75 233 142 274 191 284 c 1
 191 278 l 1
 144 264 73 206 58 160 c 1
95 54 m 1
 87 84 l 1
 95 139 155 202 206 228 c 1
 209 221 l 1
 160 192 99 110 95 54 c 1
150 -38 m 1
 136 -6 l 1
 135 55 186 133 233 170 c 1
 236 163 l 1
 191 122 145 22 150 -38 c 1
776 134 m 1
 768 183 708 249 663 271 c 1
 664 278 l 1
 710 260 769 208 781 161 c 1
 776 134 l 1
721 35 m 1
 726 91 680 182 636 219 c 1
 639 225 l 1
 685 192 736 119 735 63 c 1
 721 35 l 1
652 -47 m 1
 667 12 637 118 600 165 c 1
 604 172 l 1
 645 128 683 42 671 -18 c 1
 652 -47 l 1
EndSplineSet
Validated: 37
EndChar
StartChar: R
Encoding: 82 82 17
Width: 862
VWidth: 0
Flags: HW
VStem: 72 57<414 566> 324 40<417 532> 482 39<410 526>
LayerCount: 2
Fore
SplineSet
259 270 m 0
 318 207 377 114 392 41 c 1
 407 114 489 208 548 271 c 0
 608 334 688 388 716 470 c 0
 751 570 702 620 644 639 c 0
 567 663 465 601 438 509 c 1
 411 601 316 649 238 635 c 0
 179 625 130 555 129 492 c 0
 128 411 199 333 259 270 c 0
225 266 m 0
 149 345 72 403 72 494 c 0
 72 575 131 663 208 695 c 0
 292 730 406 664 441 549 c 1
 476 664 602 741 698 710 c 0
 772 687 801 572 788 495 c 0
 771 389 651 330 575 251 c 0
 501 173 412 77 392 -14 c 1
 372 77 299 188 225 266 c 0
324 476 m 0
 328 509 338 536 350 535 c 0
 362 534 368 505 364 472 c 0
 360 439 349 414 337 415 c 0
 325 416 320 443 324 476 c 0
482 471 m 0
 486 504 498 530 510 529 c 0
 522 528 525 499 521 466 c 0
 517 433 508 407 496 408 c 0
 484 409 478 438 482 471 c 0
574 422 m 1
 547 360 l 1
 505 324 447 294 392 297 c 0
 343 300 291 315 264 366 c 1
 268 404 l 1
 295 353 341 331 388 330 c 0
 507 327 542 387 574 422 c 1
EndSplineSet
Validated: 33
EndChar
StartChar: S
Encoding: 83 83 18
Width: 918
VWidth: 0
Flags: HW
VStem: 379 41<278 394> 539 40<271 386>
LayerCount: 2
Fore
SplineSet
379 338 m 0
 383 371 394 397 406 396 c 0
 418 395 424 366 420 333 c 0
 416 300 405 274 393 275 c 0
 381 276 375 305 379 338 c 0
539 332 m 0
 543 365 554 390 566 389 c 0
 578 388 583 359 579 326 c 0
 575 293 564 268 552 269 c 0
 540 270 535 299 539 332 c 0
323 147 m 1
 347 200 l 1
 383 229 430 255 476 252 c 0
 517 249 561 237 584 195 c 1
 581 161 l 1
 558 203 520 223 480 224 c 0
 380 227 350 176 323 147 c 1
342 431 m 0
 266 366 218 208 288 138 c 0
 375 51 577 106 653 205 c 0
 702 268 695 391 636 443 c 0
 563 508 416 494 342 431 c 0
355 485 m 0
 436 546 584 551 660 483 c 0
 732 420 753 274 697 196 c 0
 609 74 357 3 255 113 c 0
 168 208 253 407 355 485 c 0
414 520 m 1
 344 578 237 571 187 530 c 0
 119 474 36 300 117 256 c 1
 164 244 235 590 414 520 c 1
472 506 m 1
 356 475 328 541 219 362 c 0
 182 294 153 196 99 224 c 0
 -2 276 85 495 181 558 c 0
 264 612 398 587 472 506 c 1
574 513 m 1
 767 525 728 174 777 170 c 1
 867 187 841 379 794 453 c 0
 759 508 660 546 574 513 c 1
516 518 m 1
 612 572 746 553 809 476 c 0
 881 386 895 152 782 134 c 0
 722 124 727 226 713 303 c 0
 664 507 617 453 516 518 c 1
EndSplineSet
Validated: 37
EndChar
StartChar: T
Encoding: 84 84 19
Width: 800
VWidth: 0
Flags: HW
LayerCount: 2
Fore
SplineSet
325.572265625 378.493164062 m 0
 329.3359375 410.93359375 341.154296875 436.21484375 351.967773438 434.959960938 c 0
 362.78125 433.706054688 368.49609375 406.389648438 364.731445312 373.94921875 c 0
 360.966796875 341.508789062 349.149414062 316.227539062 338.334960938 317.482421875 c 0
 327.521484375 318.736328125 321.807617188 346.052734375 325.572265625 378.493164062 c 0
481.255859375 372.479492188 m 0
 485.020507812 404.920898438 496.838867188 430.201171875 507.65234375 428.947265625 c 0
 518.465820312 427.692382812 524.180664062 400.375976562 520.416015625 367.935546875 c 0
 516.651367188 335.495117188 504.833007812 310.213867188 494.01953125 311.46875 c 0
 483.206054688 312.723632812 477.4921875 340.0390625 481.255859375 372.479492188 c 0
571.159179688 325.096679688 m 1
 543.095703125 263.958984375 l 1
 501.734375 229.57421875 447.349609375 200.163085938 393.642578125 203.115234375 c 0
 346.454101562 205.709960938 295.452148438 221.259765625 268.979492188 270.649414062 c 1
 272.654296875 307.733398438 l 1
 299.126953125 258.342773438 342.912109375 237.018554688 389.299804688 235.856445312 c 0
 505.004882812 232.955078125 540.154296875 291.713867188 571.159179688 325.096679688 c 1
582.2109375 210.845703125 m 0
 650.384765625 315.366210938 704.434570312 452.20703125 686.62890625 558.240234375 c 1
 657.251953125 551.848632812 627.014648438 532.8515625 608.809570312 518.990234375 c 0
 593.114257812 504.5078125 568.8046875 482.89453125 560.921875 465.424804688 c 1
 511.59375 494.271484375 341.8203125 484.008789062 262.791992188 475.583007812 c 1
 259.372070312 494.44140625 241.016601562 521.295898438 229.291992188 539.146484375 c 0
 214.983398438 557.000976562 190.243164062 582.751953125 163.287109375 596.063476562 c 1
 131.166992188 492.830078125 156.009765625 374.325195312 190.911132812 273.762695312 c 0
 219.591796875 191.124023438 316.118164062 50.1982421875 371.364257812 20.728515625 c 0
 375.790039062 16.830078125 381.271484375 13.8271484375 387.141601562 12.71875 c 0
 393.111328125 12.9345703125 398.98046875 15.0810546875 403.940429688 18.2724609375 c 0
 477.508789062 65.5947265625 534.421875 137.580078125 582.2109375 210.845703125 c 0
614.813476562 562.01953125 m 0
 637.568359375 579.346679688 675.365234375 603.092773438 712.0859375 611.08203125 c 1
 732.43359375 477.48046875 686.068359375 339.465820312 624.0859375 221.723632812 c 0
 573.15234375 124.969726562 493.208007812 40.16015625 401.249023438 -18.9931640625 c 0
 395.048828125 -22.9814453125 387.711914062 -25.6650390625 380.249023438 -25.935546875 c 0
 372.912109375 -24.548828125 366.060546875 -20.7958984375 360.528320312 -15.9228515625 c 0
 278.477539062 56.3505859375 212.153320312 152.1875 176.302734375 255.485351562 c 0
 132.67578125 381.189453125 107.528320312 524.595703125 147.677734375 653.63671875 c 1
 181.374023438 636.997070312 212.299804688 604.80859375 230.184570312 582.490234375 c 0
 244.83984375 560.176757812 267.784179688 526.609375 272.059570312 503.036132812 c 1
 353.275390625 513.874023438 416.2734375 516.838867188 487.961914062 510.083007812 c 0
 510.745117188 507.935546875 541.823242188 497.252929688 554.953125 495.0625 c 1
 564.806640625 516.900390625 595.193359375 543.916992188 614.813476562 562.01953125 c 0
634.918945312 648.372070312 m 0
 636.249023438 673.374023438 548.21484375 698.404296875 438.416015625 704.244140625 c 0
 328.616210938 710.083007812 238.423828125 694.53125 237.094726562 669.529296875 c 0
 237.094726562 669.529296875 237.094726562 669.529296875 237.094726562 669.529296875 c 0
 235.764648438 644.52734375 323.798828125 619.497070312 433.598632812 613.658203125 c 0
 433.598632812 613.658203125 433.598632812 613.658203125 433.598632812 613.658203125 c 0
 543.397460938 607.818359375 633.58984375 623.37109375 634.918945312 648.372070312 c 0
 634.918945312 648.372070312 634.918945312 648.372070312 634.918945312 648.372070312 c 0
684.647460938 645.727539062 m 0
 682.985351562 614.475585938 570.245117188 595.03515625 432.99609375 602.333984375 c 0
 432.99609375 602.333984375 432.99609375 602.333984375 432.99609375 602.333984375 c 0
 295.74609375 609.633789062 185.704101562 640.921875 187.366210938 672.173828125 c 0
 189.028320312 703.42578125 301.768554688 722.866210938 439.017578125 715.567382812 c 0
 576.267578125 708.268554688 686.309570312 676.98046875 684.647460938 645.727539062 c 0
 684.647460938 645.727539062 684.647460938 645.727539062 684.647460938 645.727539062 c 0
47.41796875 156.766601562 m 1
 46.8408203125 183.434570312 l 1
 65.0302734375 227.3203125 129.33984375 266.858398438 177.09375 277.1953125 c 1
 177.002929688 271.28125 l 1
 130.186523438 257.299804688 62.17578125 201.921875 47.41796875 156.766601562 c 1
83.61328125 52.2890625 m 1
 75.7265625 81.89453125 l 1
 83.744140625 135.91015625 143.5390625 197.836914062 193.115234375 222.58984375 c 1
 194.625 215.963867188 l 1
 147.068359375 187.40234375 87.5205078125 106.772460938 83.61328125 52.2890625 c 1
137.536132812 -36.9912109375 m 1
 124.333984375 -6.6953125 l 1
 122.989257812 52.73828125 172.807617188 130.265625 218.78125 166.018554688 c 1
 221.4765625 159.190429688 l 1
 178.221679688 119.7265625 131.9375 22.181640625 137.536132812 -36.9912109375 c 1
748.256835938 130.844726562 m 1
 741.033203125 177.797851562 682.924804688 243.491210938 639.002929688 264.89453125 c 1
 639.875 270.744140625 l 1
 685.314453125 252.78515625 742.34375 203.322265625 753.159179688 157.064453125 c 1
 748.256835938 130.844726562 l 1
695.565429688 33.63671875 m 1
 700.563476562 88.03125 654.909179688 177.266601562 612.625976562 213.176757812 c 1
 615.192382812 219.46875 l 1
 660.086914062 186.989257812 709.024414062 116.168945312 708.158203125 61.5673828125 c 1
 695.565429688 33.63671875 l 1
627.850585938 -45.693359375 m 1
 642.991210938 11.7822265625 613.172851562 115.552734375 576.905273438 161.520507812 c 1
 580.674804688 167.819335938 l 1
 620.227539062 125.072265625 656.786132812 40.4794921875 645.80078125 -17.9453125 c 1
 627.850585938 -45.693359375 l 1
EndSplineSet
EndChar
StartChar: U
Encoding: 85 85 20
Width: 800
VWidth: 0
Flags: HW
LayerCount: 2
Fore
SplineSet
320.12890625 329.598632812 m 0
 323.892578125 362.0390625 335.7109375 387.3203125 346.5234375 386.065429688 c 0
 357.337890625 384.810546875 363.052734375 357.495117188 359.287109375 325.0546875 c 0
 355.5234375 292.61328125 343.705078125 267.33203125 332.892578125 268.586914062 c 0
 322.078125 269.841796875 316.36328125 297.158203125 320.12890625 329.598632812 c 0
475.8125 323.584960938 m 0
 479.578125 356.025390625 491.39453125 381.306640625 502.208984375 380.051757812 c 0
 513.0234375 378.796875 518.736328125 351.481445312 514.97265625 319.041015625 c 0
 511.20703125 286.599609375 499.390625 261.319335938 488.576171875 262.573242188 c 0
 477.763671875 263.828125 472.048828125 291.14453125 475.8125 323.584960938 c 0
565.71484375 276.202148438 m 1
 537.65234375 215.064453125 l 1
 496.291015625 180.6796875 441.90625 151.267578125 388.19921875 154.220703125 c 0
 341.009765625 156.815429688 290.009765625 172.364257812 263.537109375 221.754882812 c 1
 267.2109375 258.838867188 l 1
 293.68359375 209.448242188 337.46875 188.124023438 383.857421875 186.9609375 c 0
 499.5625 184.060546875 534.7109375 242.819335938 565.71484375 276.202148438 c 1
283.544921875 421.067382812 m 0
 210.283203125 357.557617188 162.7578125 203.434570312 231.35546875 134.912109375 c 0
 316.873046875 49.4892578125 514.095703125 104.73828125 588.017578125 200.37109375 c 0
 635.365234375 261.624023438 628.734375 380.389648438 571.033203125 432.005859375 c 0
 499.55859375 495.942382812 356.0078125 483.883789062 283.544921875 421.067382812 c 0
296.515625 474.288085938 m 0
 375.591796875 534.166992188 519.890625 537.10546875 594.068359375 471.255859375 c 0
 664.33203125 408.881835938 685.48828125 267.796875 630.33203125 191.735351562 c 0
 544.20703125 72.962890625 297.51953125 2.234375 197.869140625 109.912109375 c 0
 112.40234375 202.263671875 196.19921875 398.326171875 296.515625 474.288085938 c 0
752.84375 -34.2998046875 m 1
 662.21484375 -56.0380859375 680.03515625 172.829101562 676.509765625 327.96875 c 0
 675.25390625 437.815429688 593.400390625 532.53125 533.681640625 485.540039062 c 1
 437.46484375 514.939453125 l 1
 483.763671875 545.728515625 591.71484375 563.118164062 655.2890625 517.612304688 c 0
 779.119140625 428.975585938 638.9765625 -62.357421875 770.21484375 -15.5908203125 c 1
 752.84375 -34.2998046875 l 1
45.666015625 -30.9833984375 m 1
 29.78515625 -10.994140625 l 1
 156.86328125 -67.751953125 51.703125 422.494140625 198.318359375 504.608398438 c 0
 266.53125 542.8125 399.65625 551.314453125 443.451171875 517.0546875 c 1
 304.166015625 470.456054688 l 1
 248.240234375 521.90234375 159.34375 433.763671875 149.640625 324.338867188 c 0
 134.19140625 169.930664062 134.353515625 -59.62890625 45.666015625 -30.9833984375 c 1
EndSplineSet
EndChar
StartChar: V
Encoding: 86 86 21
Width: 800
VWidth: 0
Flags: HW
LayerCount: 2
Fore
SplineSet
250.688476562 329.598632812 m 0
 254.453125 362.0390625 266.270507812 387.3203125 277.083984375 386.065429688 c 0
 287.8984375 384.810546875 293.612304688 357.495117188 289.84765625 325.0546875 c 0
 286.083984375 292.61328125 274.265625 267.33203125 263.452148438 268.586914062 c 0
 252.638671875 269.841796875 246.923828125 297.158203125 250.688476562 329.598632812 c 0
406.373046875 323.584960938 m 0
 410.137695312 356.025390625 421.955078125 381.306640625 432.768554688 380.051757812 c 0
 443.583007812 378.796875 449.296875 351.481445312 445.532226562 319.041015625 c 0
 441.767578125 286.599609375 429.950195312 261.319335938 419.13671875 262.573242188 c 0
 408.323242188 263.828125 402.608398438 291.14453125 406.373046875 323.584960938 c 0
496.275390625 276.202148438 m 1
 468.211914062 215.064453125 l 1
 426.850585938 180.6796875 372.465820312 151.267578125 318.759765625 154.220703125 c 0
 271.5703125 156.815429688 220.569335938 172.364257812 194.096679688 221.754882812 c 1
 197.771484375 258.838867188 l 1
 224.244140625 209.448242188 268.029296875 188.124023438 314.416992188 186.9609375 c 0
 430.122070312 184.060546875 465.270507812 242.819335938 496.275390625 276.202148438 c 1
214.10546875 421.067382812 m 0
 140.842773438 357.557617188 93.3173828125 203.434570312 161.916015625 134.912109375 c 0
 247.43359375 49.4892578125 444.655273438 104.73828125 518.578125 200.37109375 c 0
 565.924804688 261.624023438 559.294921875 380.389648438 501.59375 432.005859375 c 0
 430.119140625 495.942382812 286.567382812 483.883789062 214.10546875 421.067382812 c 0
227.075195312 474.288085938 m 0
 306.15234375 534.166992188 450.450195312 537.10546875 524.62890625 471.255859375 c 0
 594.892578125 408.881835938 616.047851562 267.796875 560.892578125 191.735351562 c 0
 474.767578125 72.962890625 228.079101562 2.234375 128.428710938 109.912109375 c 0
 42.9619140625 202.263671875 126.759765625 398.326171875 227.075195312 474.288085938 c 0
514.430664062 470.008789062 m 1
 526.065429688 490.825195312 527.665039062 518.338867188 656.931640625 548.3046875 c 1
 622.349609375 570.208984375 561.504882812 554.4609375 524.393554688 545.75 c 1
 512.852539062 570.552734375 575.368164062 635.793945312 652.337890625 669.299804688 c 1
 506.79296875 638.282226562 420.443359375 590.51953125 352.234375 500.19140625 c 1
 286.5078125 484.203125 l 1
 377.231445312 603.540039062 551.247070312 689.290039062 698.25390625 683.77734375 c 1
 652.06640625 653.916992188 573.567382812 605.52734375 559.583984375 570.680664062 c 1
 634.7578125 591.750976562 677.2734375 567.731445312 706.948242188 543.165039062 c 1
 557.234375 507.614257812 551.74609375 480.139648438 527.05078125 444.11328125 c 1
 514.430664062 470.008789062 l 1
EndSplineSet
EndChar
StartChar: W
Encoding: 87 87 22
Width: 954
VWidth: 0
Flags: HW
VStem: 397 41<278 394> 557 40<272 387>
LayerCount: 2
Fore
SplineSet
397 338 m 0
 401 371 412 397 424 396 c 0
 436 395 442 366 438 333 c 0
 434 300 423 274 411 275 c 0
 399 276 393 305 397 338 c 0
557 332 m 0
 561 365 572 390 584 389 c 0
 596 388 601 359 597 326 c 0
 593 293 581 268 569 269 c 0
 557 270 553 299 557 332 c 0
341 147 m 1
 365 200 l 1
 401 229 448 255 494 252 c 0
 535 249 579 237 602 195 c 1
 599 161 l 1
 576 203 538 223 498 224 c 0
 398 227 368 176 341 147 c 1
359 431 m 0
 283 366 236 208 306 138 c 0
 393 51 596 106 672 205 c 0
 721 268 712 391 653 443 c 0
 580 508 433 494 359 431 c 0
373 485 m 0
 454 546 603 551 679 483 c 0
 751 420 772 274 716 196 c 0
 628 74 374 3 272 113 c 0
 185 208 271 407 373 485 c 0
410 567 m 0
 538 484 782 666 548 708 c 0
 487 717 412 699 393 640 c 0
 385 613 388 586 410 567 c 0
549 517 m 0
 546 516 543 516 539 516 c 0
 483 520 418 525 382 557 c 0
 355 581 347 620 356 653 c 0
 362 677 384 703 412 717 c 0
 457 740 517 747 566 739 c 0
 610 733 657 713 672 682 c 0
 689 650 673 605 647 573 c 0
 625 546 586 529 549 517 c 0
432 520 m 1
 362 578 256 571 206 530 c 0
 138 474 54 300 135 256 c 1
 182 244 253 590 432 520 c 1
489 506 m 1
 373 475 346 541 237 362 c 0
 200 294 171 196 117 224 c 0
 16 276 103 495 199 558 c 0
 282 612 415 587 489 506 c 1
593 513 m 1
 786 525 746 174 795 170 c 1
 885 187 859 379 812 453 c 0
 777 508 679 546 593 513 c 1
534 518 m 1
 630 572 763 553 826 476 c 0
 898 386 914 152 801 134 c 0
 741 124 745 226 731 303 c 0
 682 507 635 453 534 518 c 1
EndSplineSet
Validated: 37
EndChar
StartChar: X
Encoding: 88 88 23
Width: 800
VWidth: 0
Flags: HW
LayerCount: 2
Fore
SplineSet
320.12890625 329.598632812 m 0
 323.892578125 362.0390625 335.7109375 387.3203125 346.5234375 386.065429688 c 0
 357.337890625 384.810546875 363.052734375 357.495117188 359.287109375 325.0546875 c 0
 355.5234375 292.61328125 343.705078125 267.33203125 332.892578125 268.586914062 c 0
 322.078125 269.841796875 316.36328125 297.158203125 320.12890625 329.598632812 c 0
475.8125 323.584960938 m 0
 479.578125 356.025390625 491.39453125 381.306640625 502.208984375 380.051757812 c 0
 513.0234375 378.796875 518.736328125 351.481445312 514.97265625 319.041015625 c 0
 511.20703125 286.599609375 499.390625 261.319335938 488.576171875 262.573242188 c 0
 477.763671875 263.828125 472.048828125 291.14453125 475.8125 323.584960938 c 0
565.71484375 276.202148438 m 1
 537.65234375 215.064453125 l 1
 496.291015625 180.6796875 441.90625 151.267578125 388.19921875 154.220703125 c 0
 341.009765625 156.815429688 290.009765625 172.364257812 263.537109375 221.754882812 c 1
 267.2109375 258.838867188 l 1
 293.68359375 209.448242188 337.46875 188.124023438 383.857421875 186.9609375 c 0
 499.5625 184.060546875 534.7109375 242.819335938 565.71484375 276.202148438 c 1
283.544921875 421.067382812 m 0
 210.283203125 357.557617188 162.7578125 203.434570312 231.35546875 134.912109375 c 0
 316.873046875 49.4892578125 514.095703125 104.73828125 588.017578125 200.37109375 c 0
 635.365234375 261.624023438 628.734375 380.389648438 571.033203125 432.005859375 c 0
 499.55859375 495.942382812 356.0078125 483.883789062 283.544921875 421.067382812 c 0
296.515625 474.288085938 m 0
 375.591796875 534.166992188 519.890625 537.10546875 594.068359375 471.255859375 c 0
 664.33203125 408.881835938 685.48828125 267.796875 630.33203125 191.735351562 c 0
 544.20703125 72.962890625 297.51953125 2.234375 197.869140625 109.912109375 c 0
 112.40234375 202.263671875 196.19921875 398.326171875 296.515625 474.288085938 c 0
298.529296875 539.48828125 m 0
 423.62109375 457.6953125 661.400390625 636.1796875 432.982421875 677.20703125 c 0
 373.2109375 685.651367188 300.76953125 668.331054688 281.705078125 611.124023438 c 0
 274.560546875 585.455078125 277.62890625 557.9921875 298.529296875 539.48828125 c 0
434.46875 490.607421875 m 0
 431.37890625 489.609375 427.919921875 489.389648438 424.740234375 489.616210938 c 0
 369.33984375 493.569335938 305.111328125 499.102539062 270.2265625 529.986328125 c 0
 244.099609375 553.116210938 238.087890625 590.662109375 247.017578125 622.747070312 c 0
 253.658203125 646.614257812 273.732421875 671.762695312 301.0390625 685.83984375 c 0
 344.5859375 708.288085938 403.185546875 714.366210938 451.146484375 707.021484375 c 0
 493.525390625 700.53125 539.451171875 682.44140625 554.775390625 652.123046875 c 0
 570.826171875 620.370117188 554.439453125 577.671875 528.841796875 546.21484375 c 0
 507.96875 520.564453125 470.546875 502.26171875 434.46875 490.607421875 c 0
752.84375 -34.2998046875 m 1
 662.21484375 -56.0380859375 680.03515625 172.829101562 676.509765625 327.96875 c 0
 675.25390625 437.815429688 593.400390625 532.53125 533.681640625 485.540039062 c 1
 462.85546875 509.59375 l 1
 509.154296875 540.383789062 585.033203125 557.772460938 648.607421875 512.266601562 c 0
 772.4375 423.629882812 638.9765625 -62.357421875 770.21484375 -15.5908203125 c 1
 752.84375 -34.2998046875 l 1
45.666015625 -30.9833984375 m 1
 29.78515625 -10.994140625 l 1
 157.037109375 -67.716796875 61.35546875 427.096679688 191.63671875 505.9453125 c 0
 258.5234375 546.42578125 332.83984375 523.250976562 376.6328125 488.991210938 c 1
 304.166015625 470.456054688 l 1
 248.240234375 521.90234375 159.34375 433.763671875 149.640625 324.338867188 c 0
 134.19140625 169.930664062 134.353515625 -59.62890625 45.666015625 -30.9833984375 c 1
EndSplineSet
EndChar
StartChar: Y
Encoding: 89 89 24
Width: 800
VWidth: 0
Flags: HW
LayerCount: 2
Fore
SplineSet
202.262695312 262.78125 m 0
 206.02734375 295.221679688 217.844726562 320.502929688 228.658203125 319.248046875 c 0
 239.47265625 317.993164062 245.186523438 290.677734375 241.421875 258.237304688 c 0
 237.658203125 225.795898438 225.83984375 200.514648438 215.026367188 201.76953125 c 0
 204.212890625 203.024414062 198.498046875 230.340820312 202.262695312 262.78125 c 0
357.947265625 256.767578125 m 0
 361.711914062 289.208007812 373.529296875 314.489257812 384.34375 313.234375 c 0
 395.157226562 311.979492188 400.87109375 284.6640625 397.106445312 252.223632812 c 0
 393.342773438 219.782226562 381.524414062 194.500976562 370.7109375 195.755859375 c 0
 359.897460938 197.010742188 354.182617188 224.327148438 357.947265625 256.767578125 c 0
447.849609375 209.384765625 m 1
 419.786132812 148.247070312 l 1
 378.424804688 113.862304688 324.041015625 84.4501953125 270.333984375 87.4033203125 c 0
 223.14453125 89.998046875 172.143554688 105.546875 145.670898438 154.9375 c 1
 149.345703125 192.021484375 l 1
 175.818359375 142.630859375 219.603515625 121.306640625 265.991210938 120.143554688 c 0
 381.696289062 117.243164062 416.844726562 176.001953125 447.849609375 209.384765625 c 1
165.680664062 354.25 m 0
 92.4169921875 290.740234375 44.8916015625 136.6171875 113.490234375 68.0947265625 c 0
 199.0078125 -17.328125 396.229492188 37.9208984375 470.15234375 133.553710938 c 0
 517.499023438 194.806640625 510.869140625 313.572265625 453.16796875 365.188476562 c 0
 381.693359375 429.125 238.142578125 417.06640625 165.680664062 354.25 c 0
178.649414062 407.470703125 m 0
 257.7265625 467.349609375 402.024414062 470.288085938 476.203125 404.438476562 c 0
 546.466796875 342.064453125 567.622070312 200.979492188 512.466796875 124.91796875 c 0
 426.341796875 6.1455078125 179.653320312 -64.5830078125 80.0029296875 43.0947265625 c 0
 -5.4638671875 135.446289062 78.333984375 331.508789062 178.649414062 407.470703125 c 0
754.28515625 393.866210938 m 0
 590.07421875 428.66796875 455.947265625 498.022460938 445.883789062 413.376953125 c 1
 461.251953125 405.358398438 l 1
 519.426757812 449.026367188 658.3359375 400.171875 755.373046875 385.875976562 c 1024
381.739257812 432.0859375 m 1
 375.102539062 454.568359375 397.822265625 455.552734375 398.950195312 482.791015625 c 0
 400.078125 510.030273438 386.013671875 597.921875 409.294921875 607.719726562 c 0
 476.686523438 630.309570312 587.2734375 487.5078125 703.751953125 526.065429688 c 1
 708.4765625 518.280273438 l 1
 594.086914062 477.030273438 516.96875 585.223632812 425.331054688 558.943359375 c 0
 396.194335938 548.313476562 468.159179688 461.631835938 406.461914062 424.735351562 c 1
 381.739257812 432.0859375 l 1
122.9609375 462.34375 m 0
 215.809570312 394.249023438 389.110351562 471.049804688 319.6015625 620.908203125 c 0
 299.677734375 650.587890625 250.217773438 668.375976562 214.537109375 670.551757812 c 0
 151.85546875 673.47265625 72.87109375 638.1015625 71.673828125 561.693359375 c 0
 72.5537109375 527.596679688 96.1630859375 483.443359375 122.9609375 462.34375 c 0
274.83203125 417.385742188 m 0
 272.041015625 415.684570312 268.63671875 414.938476562 265.37109375 414.807617188 c 0
 208.489257812 412.51171875 142.2421875 411.078125 97.5146484375 446.294921875 c 0
 64.017578125 472.669921875 46.1982421875 520.344726562 45.0986328125 562.96484375 c 0
 44.2802734375 594.666992188 56.55078125 629.819335938 79.560546875 651.641601562 c 0
 116.252929688 686.442382812 173.201171875 702.116210938 223.678710938 699.038085938 c 0
 268.278320312 696.318359375 320.081054688 679.094726562 344.986328125 641.995117188 c 0
 371.069335938 603.141601562 368.0078125 545.822265625 352.168945312 501.787109375 c 0
 339.25390625 465.880859375 307.411132812 437.251953125 274.83203125 417.385742188 c 0
EndSplineSet
EndChar
StartChar: a
Encoding: 97 97 27
Width: 456
VWidth: 0
Flags: HW
LayerCount: 2
Fore
SplineSet
328 269 m 0
 364 329 348 404 293 436 c 0
 238 468 165 445 129 385 c 0
 93 325 110 250 165 218 c 0
 220 186 292 209 328 269 c 0
353 255 m 0
 309 179 219 151 150 191 c 0
 81 231 60 323 104 399 c 0
 148 475 239 503 308 463 c 0
 377 423 397 331 353 255 c 0
EndSplineSet
Validated: 33
EndChar
StartChar: b
Encoding: 98 98 28
Width: 489
VWidth: 0
Flags: W
HStem: 216 27<-27 191>
VStem: -87 333
LayerCount: 2
Fore
SplineSet
138 242 m 1
 356 242 l 1
 242 426 l 1
 138 242 l 1
241 479 m 1
 411 216 l 1
 78 216 l 1
 241 479 l 1
EndSplineSet
EndChar
StartChar: c
Encoding: 99 99 29
Width: 433
VWidth: 0
Flags: W
HStem: 216 27<-86 130> 453 27<-81 135>
VStem: -125 40<242 453> 130 37<242 453>
LayerCount: 2
Fore
SplineSet
112 453 m 1
 107 242 l 1
 323 242 l 1
 328 453 l 1
 112 453 l 1
73 479 m 1
 365 479 l 1
 360 216 l 1
 68 216 l 1
 73 479 l 1
EndSplineSet
EndChar
StartChar: d
Encoding: 100 100 30
Width: 818
VWidth: 0
Flags: HW
HStem: 216 26<104 713> 453 27<109 718>
VStem: 63 41<242 453> 713 37<242 453>
LayerCount: 2
Fore
SplineSet
109 453 m 1
 104 242 l 1
 713 242 l 1
 718 453 l 1
 109 453 l 1
69 479 m 1
 755 479 l 1
 750 216 l 1
 63 216 l 1
 69 479 l 1
EndSplineSet
Validated: 1
EndChar
StartChar: e
Encoding: 101 101 31
Width: 693
VWidth: 0
Flags: HW
VStem: 161 36<429 513> 280 27<492 586>
LayerCount: 2
Fore
SplineSet
344 123 m 1
 353 78 359 24 388 23 c 0
 438 20 478 87 492 136 c 0
 509 197 500 281 453 323 c 0
 424 350 373 340 333 332 c 0
 161 282 86 173 135 65 c 0
 144 38 171 16 199 13 c 0
 249 8 315 96 344 123 c 1
335 69 m 1
 298 36 239 -24 176 -18 c 0
 141 -14 109 18 97 51 c 0
 71 123 83 221 139 271 c 0
 225 345 399 428 486 358 c 0
 546 306 558 201 536 124 c 0
 519 63 471 -19 408 -15 c 0
 371 -12 347 13 335 69 c 1
592 561 m 0
 569 562 551 537 539 518 c 0
 530 503 520 482 528 465 c 0
 540 429 583 435 603 461 c 0
 620 480 625 511 617 535 c 0
 613 547 604 560 592 561 c 0
599 593 m 0
 618 588 636 568 641 549 c 0
 653 509 646 457 618 426 c 0
 600 407 567 397 541 403 c 0
 521 408 502 429 496 449 c 0
 490 472 498 499 510 521 c 0
 523 545 545 566 568 581 c 0
 577 587 589 596 599 593 c 0
335 604 m 0
 313 595 309 564 306 541 c 0
 305 523 307 502 321 490 c 0
 347 463 383 487 389 518 c 0
 395 542 387 573 370 591 c 0
 362 600 347 609 335 604 c 0
329 635 m 0
 348 639 371 629 385 614 c 0
 413 583 430 534 418 494 c 0
 410 468 385 445 359 440 c 0
 339 436 312 447 298 462 c 0
 281 480 279 508 280 532 c 0
 281 560 292 588 306 612 c 0
 311 621 319 632 329 635 c 0
84 539 m 0
 66 525 70 493 75 471 c 0
 79 453 86 431 103 425 c 0
 135 407 164 442 161 474 c 0
 160 500 142 523 120 536 c 0
 110 542 93 547 84 539 c 0
69 566 m 0
 87 576 110 573 128 563 c 0
 164 543 196 500 197 458 c 0
 198 431 179 402 156 389 c 0
 137 379 111 382 92 392 c 0
 70 404 58 430 52 453 c 0
 44 480 47 509 53 536 c 0
 56 546 60 561 69 566 c 0
EndSplineSet
Validated: 33
EndChar
StartChar: f
Encoding: 102 102 32
Width: 819
VWidth: 0
Flags: W
VStem: 180 35<384 467> 234 27<489 586>
LayerCount: 2
Fore
SplineSet
419 123 m 1
 428 78 434 24 463 23 c 0
 513 20 552 87 566 136 c 0
 583 197 574 281 527 323 c 0
 498 350 447 340 407 332 c 0
 235 282 161 173 210 65 c 0
 219 38 247 16 275 13 c 0
 325 8 390 96 419 123 c 1
411 69 m 1
 374 36 314 -24 251 -18 c 0
 216 -14 184 18 172 51 c 0
 146 123 159 221 215 271 c 0
 301 345 474 428 561 358 c 0
 621 306 631 201 609 124 c 0
 592 63 544 -19 481 -15 c 0
 444 -12 423 13 411 69 c 1
703 535 m 0
 680 539 659 516 646 497 c 0
 636 483 626 462 632 445 c 0
 641 409 685 412 707 435 c 0
 725 453 731 484 726 508 c 0
 723 520 715 534 703 535 c 0
712 567 m 0
 731 561 746 539 750 520 c 0
 759 479 747 428 718 399 c 0
 699 381 667 374 641 383 c 0
 621 389 604 411 599 431 c 0
 594 455 605 482 618 502 c 0
 632 526 656 545 680 558 c 0
 690 563 702 571 712 567 c 0
513 622 m 0
 490 621 475 595 465 575 c 0
 457 558 451 536 460 521 c 0
 475 486 518 498 535 525 c 0
 549 545 550 576 540 599 c 0
 535 611 525 622 513 622 c 0
517 655 m 0
 537 652 554 634 562 616 c 0
 579 578 577 525 553 492 c 0
 538 470 507 457 480 461 c 0
 458 464 439 483 430 502 c 0
 421 525 426 552 435 575 c 0
 445 601 464 622 486 640 c 0
 495 646 505 656 517 655 c 0
291 602 m 0
 271 593 262 563 261 540 c 0
 260 522 261 500 275 488 c 0
 301 461 338 486 344 517 c 0
 350 541 341 572 324 590 c 0
 316 599 303 607 291 602 c 0
283 634 m 0
 302 639 325 627 339 613 c 0
 367 582 386 533 374 493 c 0
 366 467 341 444 315 439 c 0
 295 434 270 445 255 460 c 0
 238 478 234 506 234 530 c 0
 234 558 246 585 260 609 c 0
 265 618 273 631 283 634 c 0
102 494 m 0
 84 479 88 447 93 425 c 0
 97 407 106 386 123 380 c 0
 156 362 183 398 180 430 c 0
 179 456 160 479 138 492 c 0
 128 498 111 502 102 494 c 0
86 521 m 0
 103 531 128 528 146 518 c 0
 182 498 214 457 215 415 c 0
 216 388 200 359 177 346 c 0
 158 336 130 337 111 347 c 0
 89 359 78 385 72 408 c 0
 64 435 66 465 72 492 c 0
 75 502 77 516 86 521 c 0
EndSplineSet
EndChar
StartChar: g
Encoding: 103 103 33
Width: 666
VWidth: 0
Flags: HW
HStem: 680 9G<101 109 577 596>
VStem: 153 55<369 519>
LayerCount: 2
Fore
SplineSet
331 123 m 1
 340 78 347 24 376 23 c 0
 426 20 464 87 478 136 c 0
 495 197 485 281 438 323 c 0
 409 350 359 340 319 332 c 0
 147 282 73 173 122 65 c 0
 131 38 157 16 185 13 c 0
 235 8 302 96 331 123 c 1
323 69 m 1
 286 36 226 -24 163 -18 c 0
 128 -14 96 18 84 51 c 0
 58 123 72 221 128 271 c 0
 214 345 386 428 473 358 c 0
 533 306 543 201 521 124 c 0
 504 63 456 -19 393 -15 c 0
 356 -12 335 13 323 69 c 1
325 748 m 1
 362 703 392 578 386 488 c 0
 383 461 381 408 354 411 c 0
 322 414 316 472 335 507 c 0
 368 567 337 662 325 748 c 1
586 710 m 1
 606 656 596 526 561 444 c 0
 551 418 534 371 508 381 c 0
 477 394 489 452 518 479 c 0
 568 526 569 624 586 710 c 1
85 680 m 1
 132 645 193 530 208 442 c 0
 213 415 225 366 198 361 c 0
 166 356 143 411 153 449 c 0
 170 516 117 599 85 680 c 1
EndSplineSet
Validated: 33
EndChar
StartChar: h
Encoding: 104 104 34
Width: 747
VWidth: 0
Flags: W
HStem: 716 20G<237.81 248.81>
VStem: 100.81 55<346 493>
LayerCount: 2
Fore
SplineSet
365.905273438 123 m 1
 374.905273438 78 379.905273438 24 408.905273438 23 c 0
 458.905273438 20 497.905273438 87 511.905273438 136 c 0
 528.905273438 197 519.905273438 281 472.905273438 323 c 0
 443.905273438 350 392.905273438 340 352.905273438 332 c 0
 180.905273438 282 106.905273438 173 155.905273438 65 c 0
 164.905273438 38 192.905273438 16 220.905273438 13 c 0
 270.905273438 8 336.905273438 96 365.905273438 123 c 1
356.905273438 69 m 1
 319.905273438 36 259.905273438 -24 196.905273438 -18 c 0
 161.905273438 -14 129.905273438 18 117.905273438 51 c 0
 91.9052734375 123 104.905273438 221 160.905273438 271 c 0
 246.905273438 345 420.905273438 428 507.905273438 358 c 0
 567.905273438 306 578.905273438 201 556.905273438 124 c 0
 539.905273438 63 489.905273438 -19 426.905273438 -15 c 0
 389.905273438 -12 368.905273438 13 356.905273438 69 c 1
484.905273438 746 m 1
 512.905273438 695 517.905273438 565 493.905273438 479 c 0
 485.905273438 452 476.905273438 403 449.905273438 411 c 0
 417.905273438 420 421.905273438 479 447.905273438 508 c 0
 491.905273438 560 479.905273438 659 484.905273438 746 c 1
677.905273438 669 m 1
 690.905273438 613 662.905273438 487 616.905273438 410 c 0
 602.905273438 387 577.905273438 341 554.905273438 355 c 0
 526.905273438 372 544.905273438 429 577.905273438 451 c 0
 633.905273438 491 649.905273438 587 677.905273438 669 c 1
264.905273438 736 m 1
 304.905273438 694 342.905273438 570 341.905273438 480 c 0
 341.905273438 453 342.905273438 402 315.905273438 402 c 0
 282.905273438 402 270.905273438 461 288.905273438 497 c 0
 317.905273438 560 281.905273438 650 264.905273438 736 c 1
65.9052734375 657 m 1
 112.905273438 624 174.905273438 508 191.905273438 420 c 0
 196.905273438 393 209.905273438 344 182.905273438 339 c 0
 150.905273438 333 126.905273438 388 136.905273438 426 c 0
 153.905273438 493 98.9052734375 576 65.9052734375 657 c 1
EndSplineSet
EndChar
StartChar: i
Encoding: 105 105 35
Width: 567
VWidth: 0
Flags: HW
LayerCount: 2
Fore
SplineSet
423.3515625 406.532226562 m 0
 438.791992188 575.251953125 394.477539062 685.297851562 319.12109375 692.193359375 c 0
 243.764648438 699.08984375 147.32421875 469.790039062 131.884765625 301.0703125 c 0
 116.444335938 132.350585938 179.143554688 27.1435546875 254.5 20.2470703125 c 0
 329.856445312 13.3505859375 407.912109375 237.813476562 423.3515625 406.532226562 c 0
458.315429688 419.471679688 m 0
 439.014648438 208.573242188 345.073242188 -35.71875 250.877929688 -27.0986328125 c 0
 156.682617188 -18.478515625 89.1943359375 93.6787109375 108.495117188 304.578125 c 0
 127.794921875 515.4765625 226.57421875 745.254882812 320.76953125 736.634765625 c 0
 414.96484375 728.014648438 477.615234375 630.37109375 458.315429688 419.471679688 c 0
381.662109375 220.752929688 m 1
 385.489257812 222.6875 l 1
 381.662109375 220.752929688 l 1
 377.482421875 219.75390625 l 1
 239.969726562 222.143554688 154.083007812 232.592773438 129.069335938 338.801757812 c 1
 133.908203125 405.567382812 l 1
 153.194335938 276.3359375 250.939453125 236.54296875 377.482421875 219.75390625 c 1
 381.662109375 220.752929688 l 1
EndSplineSet
EndChar
StartChar: j
Encoding: 106 106 36
Width: 553
VWidth: 0
Flags: HW
LayerCount: 2
Fore
SplineSet
415.885742188 407 m 0
 430.885742188 576 387.885742188 686 311.885742188 692 c 0
 235.885742188 698 140.885742188 470 125.885742188 301 c 0
 110.885742188 132 170.885742188 26 246.885742188 20 c 0
 322.885742188 14 400.885742188 238 415.885742188 407 c 0
451.885742188 420 m 0
 432.885742188 209 339.885742188 -36 244.885742188 -27 c 0
 149.885742188 -18 81.8857421875 94 100.885742188 305 c 0
 119.885742188 516 218.885742188 746 313.885742188 737 c 0
 408.885742188 728 470.885742188 631 451.885742188 420 c 0
EndSplineSet
EndChar
StartChar: k
Encoding: 107 107 37
Width: 735
VWidth: 0
Flags: W
HStem: 476 122<252.574 281.574 368.574 398.574>
VStem: 247.574 41<476 598> 363.574 41<475 595>
LayerCount: 2
Fore
SplineSet
289.786132812 536 m 0
 288.786132812 569 294.786132812 598 306.786132812 598 c 0
 318.786132812 598 327.786132812 571 328.786132812 538 c 0
 329.786132812 505 322.786132812 476 310.786132812 476 c 0
 298.786132812 476 290.786132812 503 289.786132812 536 c 0
358.786132812 307 m 1
 390.786132812 91 574.786132812 -1 600.786132812 174 c 0
 617.786132812 325 651.786132812 585 486.786132812 646 c 0
 408.786132812 675 232.786132812 659 190.786132812 586 c 0
 95.7861328125 422 104.786132812 159 148.786132812 76 c 0
 203.786132812 -10 320.786132812 228 358.786132812 307 c 1
355.786132812 232 m 1
 308.786132812 133 190.786132812 -79 122.786132812 29 c 0
 67.7861328125 133 50.7861328125 491 177.786132812 641 c 0
 245.786132812 722 393.786132812 721 492.786132812 684 c 0
 698.786132812 607 654.786132812 321 637.786132812 142 c 0
 618.786132812 -53 378.786132812 25 355.786132812 232 c 1
405.786132812 535 m 0
 404.786132812 568 412.786132812 595 424.786132812 595 c 0
 436.786132812 595 445.786132812 568 446.786132812 535 c 0
 447.786132812 502 439.786132812 475 427.786132812 475 c 0
 415.786132812 475 406.786132812 502 405.786132812 535 c 0
EndSplineSet
EndChar
StartChar: l
Encoding: 108 108 38
Width: 745
VWidth: 0
Flags: W
VStem: 383.573 40<500 608>
LayerCount: 2
Fore
SplineSet
420.786132812 550 m 0
 415.786132812 583 418.786132812 613 430.786132812 614 c 0
 442.786132812 615 455.786132812 591 460.786132812 558 c 0
 465.786132812 525 462.786132812 495 450.786132812 494 c 0
 438.786132812 493 425.786132812 517 420.786132812 550 c 0
306.786132812 486 m 1
 343.786132812 459 392.786132812 407 507.786132812 433 c 0
 553.786132812 443 593.786132812 474 610.786132812 529 c 1
 621.786132812 492 l 1
 604.786132812 437 556.786132812 411 509.786132812 399 c 0
 455.786132812 385 396.786132812 404 347.786132812 431 c 1
 306.786132812 486 l 1
363.786132812 288 m 1
 395.786132812 72 579.786132812 -20 605.786132812 155 c 0
 622.786132812 306 656.786132812 567 491.786132812 628 c 0
 413.786132812 657 237.786132812 641 195.786132812 568 c 0
 100.786132812 404 109.786132812 141 153.786132812 58 c 0
 208.786132812 -28 325.786132812 209 363.786132812 288 c 1
360.786132812 214 m 1
 313.786132812 115 195.786132812 -96 127.786132812 12 c 0
 72.7861328125 116 55.7861328125 472 182.786132812 622 c 0
 250.786132812 703 398.786132812 703 497.786132812 666 c 0
 703.786132812 589 659.786132812 302 642.786132812 123 c 0
 623.786132812 -72 383.786132812 7 360.786132812 214 c 1
EndSplineSet
EndChar
StartChar: m
Encoding: 109 109 39
Width: 916
VWidth: 0
Flags: HW
HStem: 419 22<231 359> 511 55<598 616>
VStem: 598 18<512 566>
LayerCount: 2
Fore
SplineSet
598 538 m 0
 597 553 600 566 605 566 c 0
 610 566 615 554 616 539 c 0
 617 524 615 511 610 511 c 0
 605 511 599 523 598 538 c 0
640 548 m 1
 623 575 589 589 561 586 c 0
 515 581 471 527 449 472 c 1
 411 427 345 416 286 419 c 0
 223 422 132 472 99 439 c 0
 90 427 169 378 238 337 c 1
 317 270 421 123 545 99 c 0
 594 95 674 94 716 134 c 0
 760 174 772 245 762 303 c 0
 750 368 634 414 647 466 c 0
 655 495 648 514 772 531 c 1
 718 545 687 526 640 548 c 1
656 568 m 1
 715 540 781 556 848 538 c 1
 806 512 691 527 676 467 c 0
 659 402 790 377 804 310 c 0
 819 241 795 164 750 106 c 1
 695 60 599 64 538 68 c 0
 502 74 468 87 437 106 c 0
 340 165 274 259 182 335 c 0
 153 359 121 384 86 398 c 0
 68 412 62 451 79 466 c 0
 121 507 202 441 253 440 c 0
 318 432 385 446 432 502 c 1
 459 571 505 614 564 620 c 0
 599 624 636 601 656 568 c 1
EndSplineSet
Validated: 33
EndChar
StartChar: n
Encoding: 110 110 40
Width: 869
VWidth: 0
Flags: HW
LayerCount: 2
Fore
SplineSet
405.465820312 303 m 1
 437.465820312 87 641.465820312 -28 647.465820312 145 c 1
 598.465820312 272 677.465820312 518 760.465820312 605 c 0
 786.465820312 632 676.465820312 656 644.465820312 634 c 0
 580.465820312 592 540.465820312 498 452.465820312 497 c 0
 265.465820312 493 121.465820312 653 117.465820312 626 c 0
 93.4658203125 472 162.465820312 154 194.465820312 73 c 1
 249.465820312 -13 367.465820312 224 405.465820312 303 c 1
403.465820312 229 m 1
 356.465820312 130 238.465820312 -81 170.465820312 27 c 0
 115.465820312 131 0.4658203125 803 138.465820312 663 c 0
 176.465820312 625 333.465820312 520 460.465820312 529 c 0
 555.465820312 535 603.465820312 696 686.465820312 684 c 0
 713.465820312 680 765.465820312 660 778.465820312 652 c 0
 865.465820312 600 593.465820312 457 684.465820312 138 c 1
 665.465820312 -57 426.465820312 22 403.465820312 229 c 1
EndSplineSet
EndChar
StartChar: o
Encoding: 111 111 41
Width: 853
VWidth: 0
Flags: W
VStem: 82.9932 58<413 566>
LayerCount: 2
Fore
SplineSet
254.497070312 270 m 0
 313.497070312 207 372.497070312 114 387.497070312 41 c 1
 402.497070312 114 483.497070312 208 542.497070312 271 c 0
 602.497070312 334 682.497070312 388 710.497070312 470 c 0
 745.497070312 570 697.497070312 620 639.497070312 639 c 0
 562.497070312 663 460.497070312 601 433.497070312 509 c 1
 406.497070312 601 310.497070312 649 232.497070312 635 c 0
 173.497070312 625 125.497070312 556 124.497070312 492 c 0
 123.497070312 411 194.497070312 333 254.497070312 270 c 0
220.497070312 266 m 0
 144.497070312 345 66.4970703125 403 66.4970703125 494 c 0
 66.4970703125 575 125.497070312 663 202.497070312 695 c 0
 286.497070312 730 401.497070312 664 436.497070312 549 c 1
 471.497070312 664 597.497070312 741 693.497070312 710 c 0
 767.497070312 687 796.497070312 572 783.497070312 495 c 0
 766.497070312 389 646.497070312 330 570.497070312 251 c 0
 496.497070312 173 407.497070312 77 387.497070312 -14 c 1
 367.497070312 77 294.497070312 188 220.497070312 266 c 0
EndSplineSet
EndChar
StartChar: p
Encoding: 112 112 42
Width: 687
VWidth: 0
Flags: W
HStem: 59 26<72.3299 503.33>
LayerCount: 2
Fore
SplineSet
569.665039062 86 m 1
 579.665039062 264 603.665039062 420 512.665039062 576 c 1
 479.665039062 498 416.665039062 360 396.665039062 284 c 1
 327.665039062 358 249.665039062 480 208.665039062 591 c 1
 98.6650390625 458 107.665039062 214 142.665039062 86 c 1
 569.665039062 86 l 1
597.665039062 59 m 1
 101.665039062 59 l 1
 59.6650390625 219 71.6650390625 491 208.665039062 657 c 1
 258.665039062 519 300.665039062 436 387.665039062 343 c 1
 413.665039062 436 470.665039062 553 512.665039062 650 c 1
 626.665039062 454 610.665039062 282 597.665039062 59 c 1
EndSplineSet
EndChar
StartChar: q
Encoding: 113 113 43
Width: 837
VWidth: 0
Flags: W
HStem: -27 40<383 446>
VStem: 65 0<160 188> 96 8<56 76> 145 14<-6 19> 351 40<328 443> 511 40<321 436> 661 18<-18 67> 730 13<63 84> 785 5<134 182>
LayerCount: 2
Fore
SplineSet
342 388 m 0
 346 421 358 446 370 445 c 0
 382 444 387 416 383 383 c 0
 379 350 368 324 356 325 c 0
 344 326 338 355 342 388 c 0
502 381 m 0
 506 414 517 440 529 439 c 0
 541 438 545 409 541 376 c 0
 537 343 527 318 515 319 c 0
 503 320 498 348 502 381 c 0
594 333 m 1
 565 270 l 1
 523 234 467 204 412 207 c 0
 363 210 311 227 284 278 c 1
 288 315 l 1
 315 264 360 243 407 242 c 0
 526 239 562 298 594 333 c 1
605 216 m 0
 675 324 730 463 712 572 c 1
 681 566 651 545 632 531 c 0
 615 516 592 494 584 476 c 1
 534 505 359 495 278 486 c 1
 274 505 255 534 243 552 c 0
 229 570 205 597 177 611 c 1
 144 505 169 382 205 280 c 0
 234 196 333 53 389 22 c 0
 394 18 400 14 406 13 c 0
 412 13 417 15 422 19 c 0
 498 68 556 140 605 216 c 0
639 576 m 0
 662 594 702 618 739 626 c 1
 759 489 712 347 648 227 c 0
 596 128 515 41 420 -19 c 0
 414 -23 406 -27 398 -27 c 0
 390 -26 383 -22 378 -17 c 0
 294 57 226 155 189 261 c 0
 144 390 119 537 160 669 c 1
 195 652 227 619 245 596 c 0
 260 573 284 539 288 515 c 1
 371 527 435 528 508 522 c 0
 531 519 563 510 577 507 c 1
 587 529 619 558 639 576 c 0
58 160 m 1
 56 188 l 1
 75 233 142 274 191 284 c 1
 191 278 l 1
 144 264 73 206 58 160 c 1
95 54 m 1
 87 84 l 1
 95 139 155 202 206 228 c 1
 209 221 l 1
 160 192 99 110 95 54 c 1
150 -38 m 1
 136 -6 l 1
 135 55 186 133 233 170 c 1
 236 163 l 1
 191 122 145 22 150 -38 c 1
776 134 m 1
 768 183 708 249 663 271 c 1
 664 278 l 1
 710 260 769 208 781 161 c 1
 776 134 l 1
721 35 m 1
 726 91 680 182 636 219 c 1
 639 225 l 1
 685 192 736 119 735 63 c 1
 721 35 l 1
652 -47 m 1
 667 12 637 118 600 165 c 1
 604 172 l 1
 645 128 683 42 671 -18 c 1
 652 -47 l 1
EndSplineSet
EndChar
StartChar: r
Encoding: 114 114 44
Width: 863
VWidth: 0
Flags: W
VStem: 92.9932 58<413 566> 344.993 40<417 531> 503.993 40<411 525>
LayerCount: 2
Fore
SplineSet
259.497070312 270 m 0
 318.497070312 207 377.497070312 114 392.497070312 41 c 1
 407.497070312 114 488.497070312 208 547.497070312 271 c 0
 607.497070312 334 687.497070312 388 715.497070312 470 c 0
 750.497070312 570 702.497070312 620 644.497070312 639 c 0
 567.497070312 663 465.497070312 601 438.497070312 509 c 1
 411.497070312 601 315.497070312 649 237.497070312 635 c 0
 178.497070312 625 130.497070312 556 129.497070312 492 c 0
 128.497070312 411 199.497070312 333 259.497070312 270 c 0
225.497070312 266 m 0
 149.497070312 345 71.4970703125 403 71.4970703125 494 c 0
 71.4970703125 575 130.497070312 663 207.497070312 695 c 0
 291.497070312 730 406.497070312 664 441.497070312 549 c 1
 476.497070312 664 602.497070312 741 698.497070312 710 c 0
 772.497070312 687 801.497070312 572 788.497070312 495 c 0
 771.497070312 389 651.497070312 330 575.497070312 251 c 0
 501.497070312 173 412.497070312 77 392.497070312 -14 c 1
 372.497070312 77 299.497070312 188 225.497070312 266 c 0
323.497070312 476 m 0
 327.497070312 509 338.497070312 536 350.497070312 535 c 0
 362.497070312 534 367.497070312 505 363.497070312 472 c 0
 359.497070312 439 348.497070312 414 336.497070312 415 c 0
 324.497070312 416 319.497070312 443 323.497070312 476 c 0
482.497070312 471 m 0
 486.497070312 504 497.497070312 530 509.497070312 529 c 0
 521.497070312 528 525.497070312 499 521.497070312 466 c 0
 517.497070312 433 507.497070312 407 495.497070312 408 c 0
 483.497070312 409 478.497070312 438 482.497070312 471 c 0
574.497070312 422 m 1
 546.497070312 360 l 1
 504.497070312 324 447.497070312 294 392.497070312 297 c 0
 343.497070312 300 291.497070312 315 264.497070312 366 c 1
 268.497070312 404 l 1
 295.497070312 353 341.497070312 331 388.497070312 330 c 0
 507.497070312 327 542.497070312 387 574.497070312 422 c 1
EndSplineSet
EndChar
StartChar: s
Encoding: 115 115 45
Width: 919
VWidth: 0
Flags: W
VStem: 428.641 40<278 393> 588.641 40<271 387>
LayerCount: 2
Fore
SplineSet
378.8203125 338 m 0
 382.8203125 371 393.8203125 397 405.8203125 396 c 0
 417.8203125 395 423.8203125 366 419.8203125 333 c 0
 415.8203125 300 404.8203125 274 392.8203125 275 c 0
 380.8203125 276 374.8203125 305 378.8203125 338 c 0
538.8203125 332 m 0
 542.8203125 365 553.8203125 390 565.8203125 389 c 0
 577.8203125 388 582.8203125 359 578.8203125 326 c 0
 574.8203125 293 563.8203125 268 551.8203125 269 c 0
 539.8203125 270 534.8203125 299 538.8203125 332 c 0
322.8203125 147 m 1
 346.8203125 200 l 1
 382.8203125 229 429.8203125 255 475.8203125 252 c 0
 516.8203125 249 560.8203125 237 583.8203125 195 c 1
 580.8203125 161 l 1
 557.8203125 203 519.8203125 223 479.8203125 224 c 0
 379.8203125 227 349.8203125 176 322.8203125 147 c 1
341.8203125 431 m 0
 265.8203125 366 217.8203125 208 287.8203125 138 c 0
 374.8203125 51 577.8203125 106 653.8203125 205 c 0
 702.8203125 268 694.8203125 391 635.8203125 443 c 0
 562.8203125 508 415.8203125 495 341.8203125 431 c 0
354.8203125 485 m 0
 435.8203125 546 584.8203125 551 660.8203125 483 c 0
 732.8203125 419 753.8203125 274 697.8203125 196 c 0
 609.8203125 74 356.8203125 3 254.8203125 113 c 0
 167.8203125 208 252.8203125 407 354.8203125 485 c 0
413.8203125 520 m 1
 343.8203125 578 237.8203125 571 187.8203125 530 c 0
 119.8203125 474 35.8203125 300 116.8203125 256 c 1
 163.8203125 244 234.8203125 590 413.8203125 520 c 1
471.8203125 506 m 1
 355.8203125 475 327.8203125 541 218.8203125 362 c 0
 181.8203125 294 152.8203125 196 98.8203125 224 c 0
 -2.1796875 276 84.8203125 495 180.8203125 558 c 0
 263.8203125 612 397.8203125 587 471.8203125 506 c 1
574.8203125 513 m 1
 766.8203125 525 727.8203125 174 776.8203125 170 c 1
 866.8203125 187 840.8203125 379 793.8203125 453 c 0
 758.8203125 508 660.8203125 546 574.8203125 513 c 1
515.8203125 518 m 1
 611.8203125 572 745.8203125 553 808.8203125 476 c 0
 880.8203125 386 895.8203125 152 782.8203125 134 c 0
 722.8203125 124 726.8203125 226 712.8203125 303 c 0
 663.8203125 507 616.8203125 453 515.8203125 518 c 1
EndSplineSet
EndChar
StartChar: v
Encoding: 118 118 48
Width: 743
VWidth: 0
Flags: W
VStem: 179.871 40<278 393> 338.871 40<271 387>
LayerCount: 2
Fore
SplineSet
218.435546875 338 m 0
 222.435546875 371 233.435546875 397 245.435546875 396 c 0
 257.435546875 395 262.435546875 366 258.435546875 333 c 0
 254.435546875 300 243.435546875 274 231.435546875 275 c 0
 219.435546875 276 214.435546875 305 218.435546875 338 c 0
377.435546875 332 m 0
 381.435546875 365 392.435546875 390 404.435546875 389 c 0
 416.435546875 388 421.435546875 359 417.435546875 326 c 0
 413.435546875 293 402.435546875 268 390.435546875 269 c 0
 378.435546875 270 373.435546875 299 377.435546875 332 c 0
469.435546875 283 m 1
 441.435546875 220 l 1
 399.435546875 184 342.435546875 154 287.435546875 157 c 0
 238.435546875 160 186.435546875 176 159.435546875 227 c 1
 163.435546875 265 l 1
 190.435546875 214 237.435546875 193 284.435546875 192 c 0
 403.435546875 189 437.435546875 248 469.435546875 283 c 1
180.435546875 431 m 0
 104.435546875 366 57.435546875 208 127.435546875 138 c 0
 214.435546875 51 416.435546875 106 492.435546875 205 c 0
 541.435546875 268 533.435546875 391 474.435546875 443 c 0
 401.435546875 508 254.435546875 495 180.435546875 431 c 0
194.435546875 485 m 0
 275.435546875 546 423.435546875 551 499.435546875 483 c 0
 571.435546875 419 592.435546875 274 536.435546875 196 c 0
 448.435546875 74 195.435546875 3 93.435546875 113 c 0
 6.435546875 208 92.435546875 407 194.435546875 485 c 0
488.435546875 481 m 1
 500.435546875 503 502.435546875 531 634.435546875 562 c 1
 598.435546875 585 537.435546875 568 499.435546875 559 c 1
 487.435546875 585 550.435546875 650 629.435546875 685 c 1
 481.435546875 653 392.435546875 604 322.435546875 512 c 1
 254.435546875 495 l 1
 347.435546875 617 526.435546875 705 677.435546875 700 c 1
 630.435546875 669 548.435546875 621 534.435546875 585 c 1
 611.435546875 607 654.435546875 583 685.435546875 557 c 1
 531.435546875 521 527.435546875 491 501.435546875 454 c 1
 488.435546875 481 l 1
EndSplineSet
EndChar
StartChar: w
Encoding: 119 119 49
Width: 955
VWidth: 0
Flags: W
VStem: 464.641 40<278 393> 624.641 40<271 387>
LayerCount: 2
Fore
SplineSet
396.8203125 338 m 0
 400.8203125 371 411.8203125 397 423.8203125 396 c 0
 435.8203125 395 441.8203125 366 437.8203125 333 c 0
 433.8203125 300 422.8203125 274 410.8203125 275 c 0
 398.8203125 276 392.8203125 305 396.8203125 338 c 0
556.8203125 332 m 0
 560.8203125 365 571.8203125 390 583.8203125 389 c 0
 595.8203125 388 600.8203125 359 596.8203125 326 c 0
 592.8203125 293 581.8203125 268 569.8203125 269 c 0
 557.8203125 270 552.8203125 299 556.8203125 332 c 0
340.8203125 147 m 1
 364.8203125 200 l 1
 400.8203125 229 447.8203125 255 493.8203125 252 c 0
 534.8203125 249 578.8203125 237 601.8203125 195 c 1
 598.8203125 161 l 1
 575.8203125 203 537.8203125 223 497.8203125 224 c 0
 397.8203125 227 367.8203125 176 340.8203125 147 c 1
359.8203125 431 m 0
 283.8203125 366 235.8203125 208 305.8203125 138 c 0
 392.8203125 51 595.8203125 106 671.8203125 205 c 0
 720.8203125 268 712.8203125 391 653.8203125 443 c 0
 580.8203125 508 433.8203125 495 359.8203125 431 c 0
372.8203125 485 m 0
 453.8203125 546 602.8203125 551 678.8203125 483 c 0
 750.8203125 419 771.8203125 274 715.8203125 196 c 0
 627.8203125 74 374.8203125 3 272.8203125 113 c 0
 185.8203125 208 270.8203125 407 372.8203125 485 c 0
409.8203125 567 m 0
 537.8203125 484 781.8203125 666 547.8203125 708 c 0
 486.8203125 717 411.8203125 699 392.8203125 640 c 0
 384.8203125 613 387.8203125 586 409.8203125 567 c 0
548.8203125 517 m 0
 545.8203125 516 542.8203125 516 538.8203125 516 c 0
 482.8203125 520 417.8203125 525 381.8203125 557 c 0
 354.8203125 581 347.8203125 620 356.8203125 653 c 0
 362.8203125 677 383.8203125 703 411.8203125 717 c 0
 456.8203125 740 516.8203125 747 565.8203125 739 c 0
 609.8203125 733 656.8203125 713 671.8203125 682 c 0
 688.8203125 650 672.8203125 605 646.8203125 573 c 0
 624.8203125 546 585.8203125 529 548.8203125 517 c 0
431.8203125 520 m 1
 361.8203125 578 255.8203125 571 205.8203125 530 c 0
 137.8203125 474 53.8203125 300 134.8203125 256 c 1
 181.8203125 244 252.8203125 590 431.8203125 520 c 1
489.8203125 506 m 1
 373.8203125 475 345.8203125 541 236.8203125 362 c 0
 199.8203125 294 170.8203125 196 116.8203125 224 c 0
 15.8203125 276 102.8203125 495 198.8203125 558 c 0
 281.8203125 612 415.8203125 587 489.8203125 506 c 1
592.8203125 513 m 1
 784.8203125 525 745.8203125 174 794.8203125 170 c 1
 884.8203125 187 858.8203125 379 811.8203125 453 c 0
 776.8203125 508 678.8203125 546 592.8203125 513 c 1
533.8203125 518 m 1
 629.8203125 572 763.8203125 553 826.8203125 476 c 0
 898.8203125 386 913.8203125 152 800.8203125 134 c 0
 740.8203125 124 744.8203125 226 730.8203125 303 c 0
 681.8203125 507 634.8203125 453 533.8203125 518 c 1
EndSplineSet
EndChar
StartChar: x
Encoding: 120 120 50
Width: 818
VWidth: 0
Flags: HW
HStem: -35 19<47 74 750 771>
VStem: 328 39<278 393> 488 39<273 386>
LayerCount: 2
Fore
SplineSet
328 338 m 0
 332 371 343 397 355 396 c 0
 367 395 371 366 367 333 c 0
 363 300 352 274 340 275 c 0
 328 276 324 305 328 338 c 0
488 332 m 0
 492 365 503 390 515 389 c 0
 527 388 531 359 527 326 c 0
 523 293 512 268 500 269 c 0
 488 270 484 299 488 332 c 0
580 283 m 1
 550 220 l 1
 508 184 453 154 398 157 c 0
 349 160 297 176 270 227 c 1
 274 265 l 1
 301 214 346 194 393 193 c 0
 512 190 548 248 580 283 c 1
291 431 m 0
 215 366 167 208 237 138 c 0
 324 51 526 106 602 205 c 0
 651 268 644 391 585 443 c 0
 512 508 365 494 291 431 c 0
303 485 m 0
 384 546 532 551 608 483 c 0
 680 420 701 274 645 196 c 0
 557 74 304 3 202 113 c 0
 115 208 201 407 303 485 c 0
306 553 m 0
 434 470 677 652 443 694 c 0
 382 703 307 685 288 626 c 0
 280 599 284 572 306 553 c 0
445 502 m 0
 442 501 439 502 435 502 c 0
 379 506 312 511 276 543 c 0
 249 567 244 604 253 637 c 0
 259 661 280 689 308 703 c 0
 353 726 413 732 462 724 c 0
 506 718 553 699 568 668 c 0
 585 636 567 591 541 559 c 0
 519 532 482 514 445 502 c 0
771 -35 m 1
 678 -57 696 176 692 335 c 0
 691 448 608 546 547 497 c 1
 474 522 l 1
 521 554 599 571 664 525 c 0
 791 434 654 -62 788 -15 c 1
 771 -35 l 1
47 -32 m 1
 31 -12 l 1
 162 -70 63 437 196 518 c 0
 265 559 340 535 385 500 c 1
 311 481 l 1
 253 533 164 445 154 332 c 0
 139 173 138 -61 47 -32 c 1
EndSplineSet
Validated: 37
EndChar
StartChar: z
Encoding: 122 122 52
Width: 846
VWidth: 0
Flags: HW
HStem: 367 142<449 542>
VStem: 63 58<414 566> 383 10<25 177>
LayerCount: 2
Fore
SplineSet
252 270 m 0
 311 207 369 114 384 41 c 1
 399 114 481 208 540 271 c 0
 600 334 680 388 708 470 c 0
 743 570 695 620 637 639 c 0
 560 663 457 601 430 509 c 1
 403 601 307 649 229 635 c 0
 170 625 123 555 122 492 c 0
 121 411 192 333 252 270 c 0
217 266 m 0
 141 345 63 403 63 494 c 0
 63 575 123 663 200 695 c 0
 284 730 398 664 433 549 c 1
 468 664 594 741 690 710 c 0
 764 687 793 572 780 495 c 0
 763 389 643 330 567 251 c 0
 493 173 404 77 384 -14 c 1
 364 77 291 188 217 266 c 0
260 369 m 1
 382 310 408 251 393 36 c 0
 392 14 386 39 383 13 c 1
 392 231 375 260 197 376 c 1
 296 437 458 458 569 411 c 1
 557 453 552 499 430 509 c 1
 552 537 615 469 611 367 c 1
 448 404 310 396 260 369 c 1
EndSplineSet
Validated: 37
EndChar
